<svg width="46" height="36" viewBox="0 0 46 36" fill="none" xmlns="http://www.w3.org/2000/svg">
<rect x="3.16357" y="9.49061" width="39.2482" height="26.4033" rx="2.92019" fill="#A36EFD"/>
<rect x="11.7266" y="15.1994" width="26.4033" height="15.6993" rx="1.94679" fill="#4C2897"/>
<circle cx="19.5763" cy="23.0491" r="3.56802" fill="#D3B8FF"/>
<circle cx="29.567" cy="23.0491" r="3.56802" fill="#D3B8FF"/>
<circle cx="33.8866" cy="2.73767" r="2.73767" fill="#A36EFD"/>
<circle cx="11.7416" cy="2.73767" r="2.73767" fill="#A36EFD"/>
<rect x="32.1221" y="4.13693" width="3.40688" height="5.35367" fill="#A36EFD"/>
<rect x="9.97705" y="4.13693" width="3.40688" height="5.35367" fill="#A36EFD"/>
<path d="M41.856 18.2512H43.0727C44.1479 18.2512 45.0195 19.1228 45.0195 20.1979V24.6999C45.0195 25.7751 44.1479 26.6467 43.0727 26.6467H41.856V18.2512Z" fill="#BB96F9"/>
<path d="M3.16357 18.2512H1.94683C0.871647 18.2512 3.98159e-05 19.1228 3.98159e-05 20.1979V24.6999C3.98159e-05 25.7751 0.871647 26.6467 1.94683 26.6467H3.16357V18.2512Z" fill="#BB96F9"/>
</svg>
