<svg width="195" height="36" viewBox="0 0 195 36" fill="none" xmlns="http://www.w3.org/2000/svg">
<rect x="3.16357" y="9.49061" width="39.2482" height="26.4033" rx="2.92019" fill="#A36EFD"/>
<rect x="11.7266" y="15.1994" width="26.4033" height="15.6993" rx="1.94679" fill="#4C2897"/>
<circle cx="19.5763" cy="23.0491" r="3.56802" fill="#D3B8FF"/>
<circle cx="29.567" cy="23.0491" r="3.56802" fill="#D3B8FF"/>
<circle cx="33.8866" cy="2.73767" r="2.73767" fill="#A36EFD"/>
<circle cx="11.7416" cy="2.73767" r="2.73767" fill="#A36EFD"/>
<rect x="32.1221" y="4.13693" width="3.40688" height="5.35367" fill="#A36EFD"/>
<rect x="9.97705" y="4.13693" width="3.40688" height="5.35367" fill="#A36EFD"/>
<path d="M41.856 18.2512H43.0727C44.1479 18.2512 45.0195 19.1228 45.0195 20.1979V24.6999C45.0195 25.7751 44.1479 26.6467 43.0727 26.6467H41.856V18.2512Z" fill="#BB96F9"/>
<path d="M3.16357 18.2512H1.94683C0.871647 18.2512 3.98159e-05 19.1228 3.98159e-05 20.1979V24.6999C3.98159e-05 25.7751 0.871647 26.6467 1.94683 26.6467H3.16357V18.2512Z" fill="#BB96F9"/>
<path d="M60.2675 26.947H56.1875V12.427H53.2595V8.94697H63.1955V12.427H60.2675V26.947ZM68.2258 26.947H64.1458V8.94697H68.2258V15.955H71.8258V8.94697H75.9058V26.947H71.8258V19.459H68.2258V26.947ZM86.798 23.467V26.947H77.822V8.94697H86.798V12.427H81.854V16.027H86.318V19.507H81.854V23.467H86.798ZM98.9317 8.94697C102.58 8.94697 104.812 10.963 104.812 15.067V20.827C104.812 24.931 102.58 26.947 98.9317 26.947H93.2917V8.94697H98.9317ZM98.9317 23.467C100.06 23.467 100.732 22.843 100.732 20.947V14.947C100.732 13.051 100.06 12.427 98.9317 12.427H97.3717V23.467H98.9317ZM115.475 23.467V26.947H106.499V8.94697H115.475V12.427H110.531V16.027H114.995V19.507H110.531V23.467H115.475ZM121.67 27.307C118.598 27.307 116.678 25.243 116.678 21.067V14.827C116.678 10.651 118.91 8.58697 122.558 8.58697C126.206 8.58697 128.438 10.651 128.438 14.827V15.715H124.358V14.707C124.358 12.715 123.686 12.067 122.558 12.067C121.454 12.067 120.758 12.715 120.758 14.707V21.187C120.758 23.155 121.43 23.827 122.558 23.827C123.662 23.827 124.358 23.155 124.358 21.307V20.467H122.318V17.227H128.438V26.947H125.462V25.171C124.694 26.611 123.374 27.307 121.67 27.307ZM139.218 23.467V26.947H130.242V8.94697H139.218V12.427H134.274V16.027H138.738V19.507H134.274V23.467H139.218ZM146.565 8.94697L149.109 24.091V8.94697H152.421V26.947H146.517L143.973 11.563V26.947H140.661V8.94697H146.565ZM159.388 26.947V8.94697H165.052C168.124 8.94697 170.236 10.507 170.236 13.459V13.699C170.236 15.451 169.372 16.603 168.004 17.227C169.684 17.899 170.788 19.315 170.788 21.379V21.859C170.788 25.147 168.676 26.947 165.58 26.947H159.388ZM164.668 12.307H163.348V15.907H164.668C165.796 15.907 166.396 15.379 166.396 14.107V13.867C166.396 12.739 165.796 12.307 164.668 12.307ZM164.98 19.267H163.348V23.587H164.98C166.084 23.587 166.708 22.963 166.708 21.475V21.235C166.708 19.795 166.084 19.267 164.98 19.267ZM177.744 27.307C174.096 27.307 171.864 25.243 171.864 21.067V14.827C171.864 10.651 174.096 8.58697 177.744 8.58697C181.392 8.58697 183.624 10.651 183.624 14.827V21.067C183.624 25.243 181.392 27.307 177.744 27.307ZM177.744 23.827C178.872 23.827 179.544 23.179 179.544 21.187V14.707C179.544 12.715 178.872 12.067 177.744 12.067C176.64 12.067 175.944 12.715 175.944 14.707V21.187C175.944 23.179 176.616 23.827 177.744 23.827ZM191.242 26.947H187.162V12.427H184.234V8.94697H194.17V12.427H191.242V26.947Z" fill="white"/>
</svg>
